<svg width="54" height="54" viewBox="0 0 54 54" fill="none" xmlns="http://www.w3.org/2000/svg">
<path fill-rule="evenodd" clip-rule="evenodd" d="M8.46375 41.1113C8.10406 41.7012 7.2034 42.7986 6.1835 43.1307C5.9675 43.2 5.75763 43.2958 5.55487 43.3977C2.07339 38.8515 0 33.1692 0 27C0 12.0878 12.0879 0 27 0C32.8605 0 38.2789 1.87268 42.7028 5.04543C42.7029 5.06321 42.7037 5.08104 42.7045 5.09896C42.7092 5.20432 42.7141 5.31334 42.5887 5.43872C42.4851 5.54281 42.384 5.59584 42.2805 5.65011C42.1653 5.71057 42.0471 5.77256 41.9193 5.90841C41.7526 6.08633 41.7828 6.25124 41.8058 6.37633C41.8162 6.4332 41.8251 6.48184 41.8133 6.51974C41.8079 6.53754 41.8027 6.55672 41.7971 6.57721C41.7651 6.69514 41.7213 6.85639 41.5555 7.04649C41.468 7.14479 41.4618 7.2421 41.4548 7.35036C41.446 7.48784 41.436 7.64297 41.257 7.84019C41.1265 7.98314 41.0464 8.16402 40.9591 8.36094C40.8318 8.64823 40.6894 8.96969 40.3533 9.25743C40.2541 9.34216 40.1567 9.42329 40.0608 9.50321C39.6076 9.88075 39.1866 10.2315 38.7628 10.8092C38.2825 11.4639 38.0125 12.5848 37.8988 13.0572C37.8909 13.0898 37.8838 13.1194 37.8774 13.1454C37.7817 13.5489 37.6166 13.6936 37.262 13.9778C37.0356 14.1615 36.8755 14.4243 36.7298 14.6634C36.65 14.7943 36.5745 14.9182 36.4948 15.0181C36.3832 15.1557 36.3586 15.2103 36.3169 15.2436C36.2734 15.2784 36.2112 15.2899 36.0119 15.3482C35.6846 15.4411 35.5576 15.986 35.4784 16.3263C35.4629 16.3928 35.4492 16.4515 35.4362 16.4975C35.3557 16.7767 35.1397 17.2892 34.8168 17.3697C34.4938 17.4502 34.342 18.0971 34.3022 18.3824C34.2625 18.6677 34.1433 19.0681 33.8183 19.169C33.6468 19.2222 33.46 19.4325 33.2838 19.6308C33.1229 19.8119 32.9708 19.9831 32.8473 20.0157C32.7933 20.0298 32.7364 20.039 32.6778 20.0486C32.4533 20.085 32.2036 20.1256 31.9935 20.4609C31.7286 20.8837 31.3913 20.899 31.2456 20.9C31.1517 20.9007 30.6349 21.1984 30.1531 21.4758C29.8878 21.6286 29.6332 21.7753 29.4657 21.8629C28.9939 22.1094 28.8951 22.2225 28.564 22.8216C28.3446 23.2155 28.1723 23.4004 27.9734 23.6138C27.8693 23.7256 27.7579 23.8451 27.6286 24.0066C27.389 24.3045 27.4334 24.4311 27.489 24.5896C27.5208 24.6804 27.5563 24.7817 27.5441 24.9317C27.5151 25.2565 27.0356 25.4672 26.7342 25.5996C26.6536 25.635 26.5857 25.6648 26.5425 25.6897C26.3665 25.7915 25.6257 26.0991 25.1876 26.2811C25.1212 26.3087 25.0617 26.3334 25.0122 26.354C24.8182 26.4345 24.5205 26.5897 24.201 26.7563C23.9011 26.9126 23.582 27.0789 23.3117 27.2028C22.7554 27.4595 22.2949 27.9374 22.1298 28.2267C21.9648 28.5171 21.2994 28.9674 20.7431 29.2242C20.1858 29.4799 19.7528 30.0464 19.6601 30.2624C19.6 30.4078 19.8701 30.3835 20.1223 30.3609C20.2466 30.3497 20.3665 30.3389 20.4405 30.349C20.6688 30.3806 21.0946 30.6068 21.0315 30.9104L21.0241 30.9459C20.9682 31.2152 20.9644 31.2337 20.2673 31.4576C19.7249 31.6318 19.5835 32.1558 19.4861 32.5171C19.453 32.6397 19.425 32.7435 19.388 32.8086C19.2574 33.0374 18.7586 33.2575 18.3181 33.4519C18.2604 33.4774 18.2038 33.5024 18.1491 33.5269C17.8673 33.6538 17.7712 33.7865 17.5875 34.0401C17.463 34.2121 17.2982 34.4397 17.008 34.7587C16.2876 35.5483 14.8795 36.0771 13.6294 36.4877C12.3772 36.9003 10.8866 37.8336 10.3099 38.5876L10.146 38.8019C9.57297 39.551 8.78903 40.5756 8.46375 41.1113ZM47.3692 9.71498C47.3855 9.662 47.4589 9.58763 47.5587 9.50612C51.572 14.2194 54 20.3245 54 27.0001C54 41.9122 41.9121 54.0001 27 54.0001C20.5281 54.0001 14.5912 51.7219 9.94211 47.9246C10.0593 47.8288 10.1642 47.7228 10.2702 47.5975C10.3779 47.4704 10.5352 47.3101 10.7074 47.1347L10.7084 47.1337C11.0164 46.8199 11.3716 46.458 11.5753 46.1517C11.8673 45.7072 12.2475 45.5633 12.4573 45.4839L12.5015 45.4671C12.7002 45.3886 12.5076 45.1329 12.3334 45.0259C12.2043 44.9467 12.3822 44.726 12.5572 44.5088L12.5573 44.5086C12.6186 44.4326 12.6794 44.3571 12.7267 44.2882C12.8545 44.1019 12.9067 43.9455 12.9711 43.7529C12.9986 43.6707 13.0283 43.5819 13.067 43.4813C13.1785 43.1893 13.539 42.931 13.7554 42.7761C13.7881 42.7526 13.8176 42.7315 13.8423 42.7131C14.0278 42.5714 14.0471 42.4278 13.713 42.277C13.3788 42.1282 13.4124 42.0284 13.6487 41.3936C13.7882 41.0109 13.9443 40.8426 14.095 40.6802C14.1942 40.5733 14.2911 40.4689 14.3793 40.3075C14.5427 40.0103 14.9641 40.0046 15.3047 40C15.4312 39.9983 15.5466 39.9967 15.6335 39.9805C15.9317 39.9233 16.0366 39.9686 16.2263 40.0505L16.2672 40.0681C16.4119 40.1298 16.5612 40.0978 16.8521 40.0355C16.9935 40.0053 17.1682 39.9678 17.3921 39.9305C17.8088 39.8608 17.9944 40.2267 18.1385 40.5109C18.2302 40.6916 18.3051 40.8392 18.412 40.821C18.5901 40.7923 18.6817 40.7093 18.8094 40.5937C18.8811 40.5287 18.9641 40.4534 19.0803 40.3717C19.3193 40.2046 19.4264 39.835 19.5348 39.4605C19.5725 39.3304 19.6104 39.1997 19.654 39.0767C19.7792 38.7278 20.0185 38.674 20.2768 38.616C20.3715 38.5947 20.4687 38.5729 20.5638 38.5357C20.7771 38.4508 20.9926 38.3044 21.2202 38.1497C21.3667 38.0502 21.5182 37.9473 21.6774 37.8551C22.086 37.6208 22.2786 37.5841 22.9153 37.4832C23.4247 37.4063 23.6528 37.2489 23.8396 37.12C23.8697 37.0993 23.8986 37.0793 23.9275 37.0605C23.945 37.0491 23.9624 37.0382 23.9801 37.0278C24.1093 36.9492 24.2314 36.8231 24.3476 36.7032L24.3478 36.7031L24.3481 36.7028C24.4352 36.6129 24.5189 36.5266 24.5995 36.4664C24.786 36.3248 25.6052 36.1261 26.3958 35.9845C26.8782 35.8977 27.1725 36.0506 27.4108 36.1744C27.5616 36.2528 27.69 36.3195 27.8293 36.3064C28.0805 36.2829 28.4464 36.0925 28.7571 35.9308C28.8914 35.861 29.0153 35.7965 29.1152 35.7532C29.4146 35.6251 29.6183 35.3478 29.8618 35.0163L29.8957 34.9702L29.9405 34.9096C30.1904 34.5739 30.835 34.327 31.2241 34.1779C31.2744 34.1586 31.3204 34.141 31.3607 34.125C31.7163 33.9875 32.3032 33.6512 32.4285 33.3344C32.5559 33.0196 32.83 32.8474 33.2986 32.6212C33.7673 32.395 33.5809 31.7857 33.3954 31.6135C33.213 31.4434 33.266 31.1999 33.533 30.9237C33.7063 30.7445 34.1093 30.5786 34.4502 30.4383C34.6325 30.3633 34.7971 30.2956 34.8993 30.237C35.0887 30.1299 35.5181 29.7045 35.8695 29.3563C36.0663 29.1614 36.2386 28.9907 36.3308 28.9135C36.5896 28.6985 37.1683 28.5916 37.3598 28.8677L37.3832 28.9019C37.5569 29.1564 37.6499 29.2926 38.0374 29.0857C38.2904 28.9512 38.3314 28.9343 38.4301 28.8937C38.4613 28.8808 38.4984 28.8655 38.5498 28.8434C38.5956 28.8237 38.6527 28.7985 38.7272 28.7648L38.7758 28.7427L38.8862 28.6933C39.2578 28.5274 39.6289 28.3618 39.907 28.0729C40.1343 27.8346 40.1624 27.6336 40.2038 27.3373C40.22 27.2206 40.2384 27.0892 40.2718 26.9349C40.3879 26.3877 40.3492 25.9242 40.2066 25.592C40.0659 25.2599 39.7491 24.8411 39.5667 24.6485C39.4038 24.4765 39.204 24.5683 38.8572 24.7275L38.8536 24.7291C38.8266 24.7415 38.7987 24.7543 38.7699 24.7674L38.7333 24.784C38.4614 24.9082 38.3631 24.9087 38.163 24.9097C38.0527 24.9103 37.9114 24.9111 37.693 24.9328C37.2459 24.9782 37.2252 24.9937 37.0863 25.0979C37.035 25.1364 36.9676 25.1871 36.8565 25.2558C36.4459 25.5115 36.2269 25.4402 36.4184 25.1121C36.5267 24.9256 36.7658 24.7235 37.0237 24.5057C37.2194 24.3404 37.4258 24.1659 37.5942 23.9822C37.7906 23.7694 37.8803 23.6098 37.9699 23.45C38.0593 23.2909 38.1488 23.1316 38.3441 22.9195C38.5134 22.7361 38.5604 22.5706 38.6105 22.3939C38.6768 22.1603 38.7486 21.907 39.1164 21.5665C39.3407 21.3578 39.4763 21.2078 39.5791 21.0941C39.771 20.8819 39.8486 20.7961 40.175 20.6912C40.6742 20.5313 41.1062 20.4243 41.4934 20.6444C41.8806 20.8645 41.6218 21.3698 41.3976 21.6306C41.1755 21.8915 41.257 22.0484 41.4873 22.2053C41.7155 22.3622 41.6819 22.6077 41.5484 22.6516C41.4886 22.6724 41.4626 22.7706 41.4289 22.8979C41.3904 23.0438 41.3416 23.2279 41.2203 23.378C41.0628 23.5747 40.8929 23.6986 40.7725 23.7864C40.7208 23.8241 40.6783 23.8551 40.6498 23.8823C40.5609 23.9674 40.9423 24.2279 41.2094 24.4104L41.2611 24.4458C41.5291 24.6282 42.0915 24.6241 42.1098 24.5008C42.1261 24.3775 42.3788 24.0443 42.4929 23.9211C42.608 23.7978 42.5469 23.5268 42.3054 23.3678C42.1177 23.2456 42.3092 23.0922 42.4728 22.961C42.5206 22.9228 42.566 22.8864 42.5989 22.8533C42.7435 22.7066 42.8199 22.4671 42.7283 22.3153C42.7117 22.288 42.6936 22.2623 42.6761 22.2375C42.597 22.1251 42.5307 22.0308 42.6743 21.8915C42.7489 21.8198 42.8358 21.7475 42.9178 21.6793C43.0305 21.5855 43.1337 21.4995 43.1827 21.434C43.2221 21.3818 43.2475 21.3011 43.2801 21.1974C43.3182 21.0763 43.3661 20.9239 43.4578 20.7493C43.6279 20.4253 44.1791 19.8619 44.7752 19.3606C45.3732 18.8603 46.3463 17.491 46.545 17.1741C46.7436 16.8583 46.6295 16.5618 46.493 16.4171C46.4019 16.3198 46.4314 16.1927 46.4637 16.0538C46.4794 15.9861 46.4958 15.9156 46.4991 15.8445C46.5093 15.6275 46.2913 15.0966 46.1517 14.8063C46.0467 14.5804 46.308 14.3583 46.5193 14.1786C46.5787 14.1281 46.6341 14.081 46.6764 14.038C46.819 13.8924 46.6537 13.7043 46.5226 13.5551C46.4776 13.504 46.4367 13.4573 46.4135 13.4186C46.3413 13.2991 46.4825 13.0887 46.606 12.9047C46.6394 12.8549 46.6715 12.807 46.6978 12.7634C46.8241 12.5576 46.8394 12.3376 46.8445 12.2132C46.8465 12.0879 46.9107 11.4165 47.0972 11.067C47.2281 10.8268 47.2826 10.3666 47.321 10.0415V10.0412L47.3211 10.0402L47.3212 10.0391C47.3386 9.8923 47.3527 9.77329 47.3692 9.71498ZM25.749 30.1524C25.6716 30.3193 25.5717 30.5346 25.1049 30.4438C24.6698 30.3592 24.0504 30.2971 23.6642 30.3368L25.7325 28.2685C26.0565 28.0749 26.353 27.9119 26.6332 27.7754C26.9298 27.6306 27.4527 27.4659 27.7307 27.3784L27.7311 27.3783L27.7314 27.3782L27.7417 27.375C28.0138 27.2873 28.1982 27.1559 28.4529 26.9725C28.7056 26.7881 28.7779 26.7259 28.8574 26.4549C28.9334 26.1898 29.1038 26.1172 29.2999 26.0337L29.3108 26.029C29.5115 25.9414 29.6287 25.9159 29.4932 26.2196C29.416 26.3958 29.3074 26.5857 29.2122 26.7521C29.1428 26.8733 29.0806 26.9822 29.0428 27.0642C29.0023 27.153 28.9988 27.3147 28.9951 27.4897V27.49C28.9905 27.7024 28.9855 27.9343 28.9134 28.079C28.785 28.3429 28.5813 28.5426 28.1707 28.5599C27.7893 28.5751 27.5961 28.7519 27.4258 28.9077L27.3882 28.942C27.2099 29.105 26.7524 29.378 26.4111 29.54C26.0708 29.701 25.8375 29.9608 25.759 30.131L25.749 30.1524ZM24.5883 28.6303C24.2888 28.5885 24.0279 28.8229 23.9098 28.9319C23.8171 29.0151 23.7523 28.9912 23.6183 28.9418C23.5784 28.9272 23.5324 28.9102 23.4778 28.8932C23.2373 28.8188 22.9918 29.0776 22.9245 29.2752C22.8552 29.4739 22.5037 29.4464 22.3723 29.3445C22.2408 29.2426 21.8883 29.3822 21.6805 29.5218C21.5025 29.6402 21.3396 29.8068 21.1587 29.9919L21.1075 30.0442L21.0692 30.0832C20.9094 30.2437 21.1226 30.4009 21.3101 30.5391L21.3104 30.5394C21.3788 30.5898 21.4437 30.6377 21.4859 30.6823C21.6367 30.8412 21.8792 30.7638 22.0258 30.7006C22.1077 30.6656 22.2368 30.6247 22.3682 30.583C22.474 30.5495 22.5813 30.5154 22.6667 30.4836C22.7677 30.4463 22.9002 30.4328 23.0558 30.417C23.1936 30.4029 23.3495 30.3871 23.5175 30.3512C23.5562 30.343 23.6153 30.342 23.6622 30.3379L25.7305 28.2696C25.7188 28.2767 25.7076 28.2831 25.6964 28.2895C25.6851 28.2958 25.6739 28.3022 25.6622 28.3093C25.3097 28.5203 24.8838 28.67 24.5883 28.6303Z" fill="#70CF29"/>
</svg>
